<?xml version="1.0" encoding="utf-8"?>
<!-- Generator: Adobe Illustrator 17.0.2, SVG Export Plug-In . SVG Version: 6.00 Build 0)  -->
<!DOCTYPE svg PUBLIC "-//W3C//DTD SVG 1.1//EN" "http://www.w3.org/Graphics/SVG/1.1/DTD/svg11.dtd">
<svg version="1.1" id="Layer_1" xmlns="http://www.w3.org/2000/svg" xmlns:xlink="http://www.w3.org/1999/xlink" x="0px" y="0px"
	 width="50px" height="50px" viewBox="0 0 50 50" enable-background="new 0 0 50 50" xml:space="preserve">
<g>
	<path fill="#8FA268" d="M38,12.25c-2.846-2.846-16.556-9.806-24.899-1.462c-5.179,5.179-3.412,15.344,3.948,22.704
		c3.3,3.3,7.163,5.471,10.89,6.401c0.002-0.001,0.003-0.001,0.005-0.002c4.582,1.142,8.954,0.403,11.811-2.453
		C44.933,32.261,45.36,19.61,38,12.25z"/>
	<path fill="#B0C480" d="M38.574,11.966c-1.865-1.865-4.006-3.181-6.127-3.899c2.263,1.057,2.263,1.058,0,0.001
		c-3.361-1.138-6.673-0.772-8.754,1.31c-3.394,3.394-2.236,10.057,2.588,14.881c2.163,2.163,4.695,3.586,7.138,4.195
		c0.001,0,0.002-0.001,0.003-0.001c3.004,0.748,5.869,0.264,7.741-1.608C44.557,23.453,43.398,16.79,38.574,11.966z"/>
</g>
</svg>
